<svg id="icons" xmlns="http://www.w3.org/2000/svg" viewBox="0 0 512 512"><defs><style>.cls-1{fill:#515151;}.cls-2{fill:#298ac0;}</style></defs><title>icon03</title><path class="cls-1" d="M168,104H312v16H168Z"/><path class="cls-1" d="M168,152H312v16H168Z"/><path class="cls-1" d="M168,184H312v16H168Z"/><path class="cls-1" d="M168,232h64v16H168Z"/><path class="cls-1" d="M168,264h64v16H168Z"/><path class="cls-1" d="M168,312h64v16H168Z"/><path class="cls-1" d="M496,504a8,8,0,0,0,8-8V368a8,8,0,0,0-8-8H424V240a8,8,0,0,0-8-8H392V32a8,8,0,0,0-8-8H296V16a8,8,0,0,0-8-8H112a8,8,0,0,0-8,8v8H16a8,8,0,0,0-8,8V480a8,8,0,0,0,8,8H168v8a8,8,0,0,0,8,8ZM424,376v32H408V376ZM264,360V248h48v40a8,8,0,0,0,8,8h32a8,8,0,0,0,8-8V248h48V360Zm0,16v32H248V376Zm64-128h16v32H328ZM376,40V232H360V64a8,8,0,0,0-8-8H296V40ZM120,24H280V72H120ZM24,472V40h80V56H48a8,8,0,0,0-8,8V432a8,8,0,0,0,8,8H168v32ZM168,368v56H56V72h48v8a8,8,0,0,0,8,8H288a8,8,0,0,0,8-8V72h48V232H256a8,8,0,0,0-8,8V360H176A8,8,0,0,0,168,368Zm16,8h48v40a8,8,0,0,0,8,8h32a8,8,0,0,0,8-8V376h48V488H184ZM488,488H344V376h48v40a8,8,0,0,0,8,8h32a8,8,0,0,0,8-8V376h48Z"/><path class="cls-2" d="M440,456h32v16H440Z"/><path class="cls-2" d="M360,328h32v16H360Z"/><path class="cls-2" d="M280,456h32v16H280Z"/><path class="cls-1" d="M137.57,108.9a6.57,6.57,0,0,0-9.3,0L100,137.14,88.23,125.35a6.58,6.58,0,0,0-9.31,9.3L95.37,151.1a6.57,6.57,0,0,0,9.3,0l32.9-32.9A6.57,6.57,0,0,0,137.57,108.9Z"/><path class="cls-1" d="M137.57,170.9a6.57,6.57,0,0,0-9.3,0L100,199.14,88.23,187.35a6.58,6.58,0,0,0-9.31,9.3L95.37,213.1a6.57,6.57,0,0,0,9.3,0l32.9-32.9A6.57,6.57,0,0,0,137.57,170.9Z"/><path class="cls-1" d="M137.57,242.9a6.57,6.57,0,0,0-9.3,0L100,271.14,88.23,259.35a6.58,6.58,0,0,0-9.31,9.3L95.37,285.1a6.57,6.57,0,0,0,9.3,0l32.9-32.9A6.57,6.57,0,0,0,137.57,242.9Z"/><path class="cls-1" d="M137.57,324.9a6.57,6.57,0,0,0-9.3,0L100,353.14,88.23,341.35a6.58,6.58,0,0,0-9.31,9.3L95.37,367.1a6.57,6.57,0,0,0,9.3,0l32.9-32.9A6.57,6.57,0,0,0,137.57,324.9Z"/><path class="cls-2" d="M175,504H495a8,8,0,0,0,8-8V368a8,8,0,0,0-8-8H423V240a8,8,0,0,0-8-8H255a8,8,0,0,0-8,8V360H175a8,8,0,0,0-8,8V496A8,8,0,0,0,175,504Zm256-80a8,8,0,0,0,8-8V376h48V488H343V376h48v40a8,8,0,0,0,8,8Zm-8-48v32H407V376ZM327,248h16v32H327Zm-64,0h48v40a8,8,0,0,0,8,8h32a8,8,0,0,0,8-8V248h48V360H263ZM247,376h16v32H247Zm-64,0h48v40a8,8,0,0,0,8,8h32a8,8,0,0,0,8-8V376h48V488H183Z"/></svg>