<svg id="icons" xmlns="http://www.w3.org/2000/svg" viewBox="0 0 512 512"><defs><style>.cls-1{fill:#298ac0;}.cls-2{fill:#515151;}</style></defs><title>icon01</title><path class="cls-1" d="M162.67,302.38a32,32,0,0,1-44.29,44.29L109.55,360A48,48,0,0,0,176,293.54Z"/><path class="cls-1" d="M136,288a31.79,31.79,0,0,1,17.61,5.32L162.45,280A48,48,0,0,0,96,346.46l13.35-8.83A32,32,0,0,1,136,288Z"/><path class="cls-1" d="M296,344v48h32V376H312V344Z"/><path class="cls-1" d="M304,296a88.16,88.16,0,0,0-55.69,19.87l10.15,12.39A72,72,0,0,1,296,312.5V328h16V312.47A72.12,72.12,0,0,1,375.53,376H360v16h15.5a72.08,72.08,0,0,1-15.76,37.55l12.38,10.14A88,88,0,0,0,304,296Z"/><path class="cls-1" d="M312,455.5V440H296v15.53A72.12,72.12,0,0,1,232.47,392H248V376H232.5a72.08,72.08,0,0,1,15.76-37.55l-12.38-10.14A88,88,0,0,0,359.69,452.13l-10.15-12.39A72,72,0,0,1,312,455.5Z"/><path class="cls-2" d="M456,376H440V152H392V302.69a121.36,121.36,0,0,0-16-14.47V192H328v74.41a120.19,120.19,0,0,0-16-2V232H264v39a119.36,119.36,0,0,0-22.86,11,109.89,109.89,0,0,0-5.52-13l12.65-17.71-43.52-43.53L187,220.38a110,110,0,0,0-16.67-6.88L166.79,192H105.22l-3.57,21.5A110,110,0,0,0,85,220.38L67.26,207.72,23.74,251.25,36.39,269a110.7,110.7,0,0,0-6.89,16.67L8,289.22v61.56l21.5,3.58A110.66,110.66,0,0,0,36.38,371L23.73,388.74l43.52,43.53L85,419.62a112.14,112.14,0,0,0,16.67,6.88l3.57,21.5h61.57l3.57-21.5A111,111,0,0,0,187,419.63l3.2,2.28C206.15,469.54,251.09,504,304,504c63.47,0,115.45-49.56,119.59-112H504V88H456ZM408,168h16V376h-.41A119,119,0,0,0,408,324.39Zm-64,40h16V278A119.27,119.27,0,0,0,344,271Zm-64,40h16v16.41a118.57,118.57,0,0,0-16,2ZM183.64,403.27a95.62,95.62,0,0,1-22.45,9.27l-4.95,1.34-3,18.12H118.78l-3-18.12-5-1.34a95.79,95.79,0,0,1-22.45-9.27l-4.46-2.56L69,411.38,44.62,387l10.66-14.93-2.55-4.46a94.77,94.77,0,0,1-9.27-22.44l-1.34-4.95-18.12-3V302.78l18.12-3,1.34-4.95a95.69,95.69,0,0,1,9.27-22.44l2.56-4.46L44.63,253,69,228.63,83.9,239.29l4.46-2.56a95.62,95.62,0,0,1,22.45-9.27l5-1.34,3-18.12h34.43l3,18.12,4.95,1.34a95.79,95.79,0,0,1,22.45,9.27l4.46,2.56L203,228.63,227.38,253l-10.66,14.93,2.55,4.46a94.51,94.51,0,0,1,8.2,19.29,121.24,121.24,0,0,0-13,12.73A80.3,80.3,0,1,0,184,383.79c0,.07,0,.14,0,.21a119.65,119.65,0,0,0,1.53,18.18Zm16.16-78.56A119.56,119.56,0,0,0,186.66,359,63.92,63.92,0,1,1,200,320C200,321.59,199.91,323.15,199.8,324.71ZM304,488A104,104,0,1,1,408,384,104.13,104.13,0,0,1,304,488ZM472,104h16V376H472Z"/><path class="cls-1" d="M424,376h-.41A119,119,0,0,0,408,324.39l-16-21.7a121.36,121.36,0,0,0-16-14.47L360,278A119.27,119.27,0,0,0,344,271l-16-4.6a120.19,120.19,0,0,0-16-2H296a118.57,118.57,0,0,0-16,2L264,271a119.36,119.36,0,0,0-22.86,11,109.89,109.89,0,0,0-5.52-13l12.65-17.71-43.52-43.53L187,220.38a110,110,0,0,0-16.67-6.88L166.79,192H105.22l-3.57,21.5A110,110,0,0,0,85,220.38L67.26,207.72,23.74,251.25,36.39,269a110.7,110.7,0,0,0-6.89,16.67L8,289.22v61.56l21.5,3.58A110.66,110.66,0,0,0,36.38,371L23.73,388.74l43.52,43.53L85,419.62a112.14,112.14,0,0,0,16.67,6.88l3.57,21.5h61.57l3.57-21.5A111,111,0,0,0,187,419.63l3.2,2.28C206.15,469.54,251.09,504,304,504c63.47,0,115.45-49.56,119.59-112ZM183.64,403.27a95.62,95.62,0,0,1-22.45,9.27l-4.95,1.34-3,18.12H118.78l-3-18.12-5-1.34a95.79,95.79,0,0,1-22.45-9.27l-4.46-2.56L69,411.38,44.62,387l10.66-14.93-2.55-4.46a94.77,94.77,0,0,1-9.27-22.44l-1.34-4.95-18.12-3V302.78l18.12-3,1.34-4.95a95.69,95.69,0,0,1,9.27-22.44l2.56-4.46L44.63,253,69,228.63,83.9,239.29l4.46-2.56a95.62,95.62,0,0,1,22.45-9.27l5-1.34,3-18.12h34.43l3,18.12,4.95,1.34a95.79,95.79,0,0,1,22.45,9.27l4.46,2.56L203,228.63,227.38,253l-10.66,14.93,2.55,4.46a94.51,94.51,0,0,1,8.2,19.29,121.24,121.24,0,0,0-13,12.73A80.3,80.3,0,1,0,184,383.79c0,.07,0,.14,0,.21a119.65,119.65,0,0,0,1.53,18.18Zm3-44.27A63.92,63.92,0,1,1,200,320c0,1.59-.09,3.15-.2,4.71A119.56,119.56,0,0,0,186.66,359ZM304,488A104,104,0,1,1,408,384,104.13,104.13,0,0,1,304,488Z"/><path class="cls-2" d="M456,8V24h17.19l-56.6,45.28L392,44.69,354.28,82.41A23.52,23.52,0,0,0,344,80a24,24,0,0,0-24,24,23.71,23.71,0,0,0,3,11.38l-41.82,46.46A23.76,23.76,0,0,0,272,160c-.15,0-.29,0-.44.05L239.39,74.26A24,24,0,1,0,200.55,61L135,101.39A23.74,23.74,0,0,0,120,96a24,24,0,0,0-22.53,16H54.53a24,24,0,1,0,0,16h43a23.94,23.94,0,0,0,46-13L209,74.61A23.69,23.69,0,0,0,224,80c.15,0,.29,0,.44,0l32.17,85.78A24,24,0,1,0,296,184a23.53,23.53,0,0,0-3-11.37l41.82-46.47A23.76,23.76,0,0,0,344,128a24,24,0,0,0,24-24,23.52,23.52,0,0,0-2.41-10.28L392,67.31l23.41,23.41L488,32.65V56h16V8ZM32,128a8,8,0,1,1,8-8A8,8,0,0,1,32,128Zm88,0a8,8,0,1,1,8-8A8,8,0,0,1,120,128Zm96-72a8,8,0,1,1,8,8A8,8,0,0,1,216,56Zm56,136a8,8,0,1,1,8-8A8,8,0,0,1,272,192Zm72-80a8,8,0,1,1,8-8A8,8,0,0,1,344,112Z"/></svg>