<svg id="icons" xmlns="http://www.w3.org/2000/svg" viewBox="0 0 621.99 512"><defs><style>.cls-1{fill:#515151;}.cls-2{fill:#298ac0;}</style></defs><title>icon04</title><path class="cls-1" d="M155.93,313.27H139.27v18.1a25,25,0,0,0,8.33,48.55,8.33,8.33,0,1,1,0,16.66h-25v16.66h16.66V429.9h16.66V411.81a25,25,0,0,0-8.33-48.55,8.33,8.33,0,0,1,0-16.66h25V329.93H155.93Z"/><rect class="cls-1" x="272.55" y="329.93" width="16.66" height="16.66"/><path class="cls-1" d="M505.81,454.89v16.66H259.87a59.84,59.84,0,0,1-30.57,8.33H65.9A59.92,59.92,0,0,1,6,420V406.59a63.51,63.51,0,0,1,24-49.84,46.9,46.9,0,0,0,17.7-36.83,86,86,0,0,1,47.81-77.36l17-8.5L99.69,194.6a21.55,21.55,0,0,1,29.59-26.18l.65-.63a25,25,0,0,1,35.34,0l.64.63a21.56,21.56,0,0,1,29.6,26.18l-12.79,39.46,17,8.5a86,86,0,0,1,47.8,77.36,46.94,46.94,0,0,0,17.71,36.83,63.55,63.55,0,0,1,24,49.84V420A60.19,60.19,0,0,1,278,454.89h61.2V188.31h-50v125H272.56V113.34h-50V230H205.91V105a8.34,8.34,0,0,1,8.33-8.33h66.65a8.34,8.34,0,0,1,8.33,8.33v66.64h58.31a8.34,8.34,0,0,1,8.33,8.33v66.65h58.31A8.33,8.33,0,0,1,422.5,255V321.6h58.32a8.34,8.34,0,0,1,8.33,8.33v125Zm-33.32,0V338.26h-50V454.89Zm-66.65,0V263.29h-50v191.6ZM272.56,420V406.59a46.94,46.94,0,0,0-17.71-36.83,63.51,63.51,0,0,1-23.95-49.84,69.44,69.44,0,0,0-38.6-62.45l-21.68-10.84H169.4l19,37.93L173.47,292l-22.69-45.38h-6.37L121.72,292l-14.9-7.45,19-37.93h-1.2L102.9,257.47a69.42,69.42,0,0,0-38.6,62.45,63.55,63.55,0,0,1-23.95,49.84,46.94,46.94,0,0,0-17.71,36.83V420A43.26,43.26,0,0,0,65.9,463.22H229.3A43.26,43.26,0,0,0,272.56,420Zm-92.9-230.49a4.89,4.89,0,0,0-6.84-5.88L168,186a8.34,8.34,0,0,1-9.62-1.56l-4.88-4.88a8.34,8.34,0,0,0-11.78,0l-4.89,4.88a8.32,8.32,0,0,1-9.61,1.56l-4.84-2.42h0a4.88,4.88,0,0,0-6.82,5.88L128.67,230h37.86Z"/><path class="cls-2" d="M558.36,187V32.12H403.1V187H345.44l135.29,149.4L616,187ZM381.1,202.8h37.81V47.94H542.54V202.8h37.81l-99.62,110Z"/><path class="cls-2" d="M497.57,155.3a54.66,54.66,0,0,0-10.19-6.1l-5.73-3c-1-.54-2.24-1.39-3.8-2.47l-.15-.1c-2.76-2.15-3.3-4-3.3-6.51a6.55,6.55,0,0,1,6.33-6.75c3.67,0,6.41,1.08,9.54,6.65l1.37,2.45,11.93-7.72-1.08-2.12c-3.29-6.48-8-10.65-14-12.4v-9.74h-13.8v9.66a21.32,21.32,0,0,0-14.94,20.71c0,6.4,2.05,11.19,6.47,15.12,4,3.41,6.92,5.22,13.17,8.06,9.41,4.48,12.58,7.55,12.58,12.13a11,11,0,0,1-2.25,7.15c-1.94,2.28-4.53,3.34-8.13,3.34-6.79,0-10.56-4-13.47-14.19l-.94-3.33-12.66,7.66.38,1.83c2.24,10.85,9.73,18.89,19.79,21.44v9.57h13.8V197a23,23,0,0,0,11.68-7,24.34,24.34,0,0,0,6.46-17v-.11C506.28,165,503.57,159.77,497.57,155.3Z"/></svg>