<?xml version="1.0" encoding="utf-8"?>
<!-- Generator: Adobe Illustrator 22.1.0, SVG Export Plug-In . SVG Version: 6.00 Build 0)  -->
<svg version="1.1" id="圖層_1" xmlns="http://www.w3.org/2000/svg" xmlns:xlink="http://www.w3.org/1999/xlink" x="0px" y="0px"
	 viewBox="0 0 300 300" style="enable-background:new 0 0 300 300;" xml:space="preserve">
<style type="text/css">
	.st0{fill:#FFFFFF;}
</style>
<g>
	<g>
		<path class="st0" d="M64.7,259.1v8.2c0,5.9-4.8,10.7-10.7,10.7H32.7c-5.9,0-10.7-4.8-10.7-10.7V117.1c0-5.9,4.8-10.7,10.7-10.7H54
			c5.9,0,10.7,4.8,10.7,10.7v2.8V258C64.6,258.3,64.6,258.7,64.7,259.1z"/>
		<path d="M54,298H32.7C15.8,298,2,284.2,2,267.3V117.1c0-16.9,13.8-30.7,30.7-30.7H54c16.9,0,30.7,13.8,30.7,30.7V258l-0.1,0.5
			c0-1.4-0.2-2.8-0.5-4.2l0.5,4.2l-1,5.9c0.6-1.9,1-3.9,1-5.8l0.1,0.6v8.2C84.7,284.2,70.9,298,54,298z M42,258h2.6
			c0-0.4,0-0.9,0.1-1.3V126.4H42V258z"/>
	</g>
	<g>
		<path class="st0" d="M269.1,131.7c7.2,8.4,10.2,19.5,8.4,30.5l-14.1,84.4c-3,18.2-18.6,31.4-37.1,31.4h-22.1
			c-69,0-106.5-18.3-118.3-25.2V126c15.4-9.5,56.6-38.6,56.6-78.5c0-25.5,3.9-25.5,7.4-25.5c7.8,0,19.5,10,19.5,37.5
			c0,26.2-10.2,42.2-10.3,42.3c-2.2,3.3-2.4,7.5-0.5,10.9s5.5,5.6,9.4,5.6h72.3C251.5,118.4,261.9,123.3,269.1,131.7z"/>
		<path d="M226.3,298h-22.1c-72.8,0-114-19.5-128.4-27.9l-9.9-17.3V126l9.5-17c11-6.8,47.1-31.4,47.1-61.5c0-15,1.2-23.8,4.1-30.4
			c2.5-5.6,8.8-15.1,23.3-15.1c19,0,39.5,18,39.5,57.5c0,13.1-2.1,25.8-6.2,37.6c-0.1,0.3-0.3,0.7-0.4,1.2l57.8,0
			c16.9,0.2,32.8,7.6,43.8,20.4c11,12.8,15.7,29.9,13,46.7l-14.1,84.5C278.5,277.8,254.6,298,226.3,298z M105.9,240.5
			c16,7.1,48,17.5,98.3,17.5h22.1c8.7,0,16-6.2,17.4-14.7l14.1-84.4c0.8-5.1-0.6-10.3-3.9-14.2l0,0c-3.5-4.1-8.4-6.3-13.7-6.4H168
			c-11.1,0-21.4-6.1-26.9-15.8c-2.4-4.3-3.7-9-3.8-13.7c-10.3,11.9-21.9,21.4-31.4,28V240.5z M175.7,112.9L175.7,112.9
			c0.2-0.2,0.4-0.5,0.5-0.8C176.1,112.3,175.9,112.6,175.7,112.9z"/>
	</g>
	<g>
		<path d="M64.7,257.9v1.2C64.6,258.7,64.6,258.3,64.7,257.9z"/>
		<path d="M45.3,264c-0.9-3.6-0.9-7.3,0-10.9l29.2,3.6l-7.4,1.9l7.4,1.9L45.3,264z M84.6,259.1c0-0.4,0-0.8,0-1.2l0.1,0L84.6,259.1
			L84.6,259.1z"/>
	</g>
	<g>
		<g>
			<path class="st0" d="M64.7,259.1v8.2c0,5.9-4.8,10.7-10.7,10.7H32.7c-5.9,0-10.7-4.8-10.7-10.7V117.1c0-5.9,4.8-10.7,10.7-10.7
				H54c5.9,0,10.7,4.8,10.7,10.7v2.8V258C64.6,258.3,64.6,258.7,64.7,259.1z"/>
		</g>
		<g>
			<path class="st0" d="M269.1,131.7c7.2,8.4,10.2,19.5,8.4,30.5l-14.1,84.4c-3,18.2-18.6,31.4-37.1,31.4h-22.1
				c-69,0-106.5-18.3-118.3-25.2V126c15.4-9.5,56.6-38.6,56.6-78.5c0-25.5,3.9-25.5,7.4-25.5c7.8,0,19.5,10,19.5,37.5
				c0,26.2-10.2,42.2-10.3,42.3c-2.2,3.3-2.4,7.5-0.5,10.9s5.5,5.6,9.4,5.6h72.3C251.5,118.4,261.9,123.3,269.1,131.7z"/>
		</g>
	</g>
</g>
</svg>
