<?xml version="1.0" encoding="utf-8"?>
<!-- Generator: Adobe Illustrator 22.1.0, SVG Export Plug-In . SVG Version: 6.00 Build 0)  -->
<svg version="1.1" id="圖層_1" xmlns="http://www.w3.org/2000/svg" xmlns:xlink="http://www.w3.org/1999/xlink" x="0px" y="0px"
	 viewBox="0 0 300 300" style="enable-background:new 0 0 300 300;" xml:space="preserve">
<style type="text/css">
	.st0{fill:url(#SVGID_1_);stroke:#000000;stroke-width:40;stroke-linecap:round;stroke-linejoin:round;stroke-miterlimit:10;}
	.st1{fill:url(#SVGID_2_);stroke:#000000;stroke-width:40;stroke-linecap:round;stroke-linejoin:round;stroke-miterlimit:10;}
	.st2{fill:url(#SVGID_3_);stroke:#000000;stroke-width:40;stroke-linecap:round;stroke-linejoin:round;stroke-miterlimit:10;}
	.st3{fill:url(#SVGID_4_);}
	.st4{fill:url(#SVGID_5_);}
</style>
<g>
	
		<linearGradient id="SVGID_1_" gradientUnits="userSpaceOnUse" x1="43.35" y1="-242.5" x2="43.35" y2="-122.3501" gradientTransform="matrix(1 0 0 -1 0 2)">
		<stop  offset="0" style="stop-color:#FF8A00"/>
		<stop  offset="1" style="stop-color:#FFC000"/>
	</linearGradient>
	<path class="st0" d="M64.7,259.1v8.2c0,5.9-4.8,10.7-10.7,10.7H32.7c-5.9,0-10.7-4.8-10.7-10.7V117.1c0-5.9,4.8-10.7,10.7-10.7H54
		c5.9,0,10.7,4.8,10.7,10.7v2.8V258C64.6,258.3,64.6,258.7,64.7,259.1z"/>
	
		<linearGradient id="SVGID_2_" gradientUnits="userSpaceOnUse" x1="181.9551" y1="-242.5" x2="181.9551" y2="-122.3501" gradientTransform="matrix(1 0 0 -1 0 2)">
		<stop  offset="0" style="stop-color:#FF8A00"/>
		<stop  offset="1" style="stop-color:#FFC000"/>
	</linearGradient>
	<path class="st1" d="M269.1,131.7c7.2,8.5,10.2,19.5,8.4,30.5l-14.1,84.4c-3,18.2-18.6,31.4-37.1,31.4h-22.1
		c-69,0-106.5-18.3-118.3-25.2V126c15.4-9.5,56.6-38.6,56.6-78.5c0-25.5,3.9-25.5,7.4-25.5c7.8,0,19.5,10,19.5,37.5
		c0,26.2-10.2,42.2-10.3,42.3c-2.2,3.3-2.4,7.5-0.5,11c1.9,3.4,5.5,5.6,9.4,5.6h72.3C251.5,118.5,261.9,123.3,269.1,131.7z"/>
	
		<linearGradient id="SVGID_3_" gradientUnits="userSpaceOnUse" x1="64.6625" y1="-242.5" x2="64.6625" y2="-122.3501" gradientTransform="matrix(1 0 0 -1 0 2)">
		<stop  offset="0" style="stop-color:#FF8A00"/>
		<stop  offset="1" style="stop-color:#FFC000"/>
	</linearGradient>
	<path class="st2" d="M64.7,257.9v1.2C64.6,258.7,64.6,258.3,64.7,257.9z"/>
	<g>
		
			<linearGradient id="SVGID_4_" gradientUnits="userSpaceOnUse" x1="43.35" y1="-242.5" x2="43.35" y2="-122.3501" gradientTransform="matrix(1 0 0 -1 0 2)">
			<stop  offset="0" style="stop-color:#FF8A00"/>
			<stop  offset="1" style="stop-color:#FFC000"/>
		</linearGradient>
		<path class="st3" d="M64.7,259.1v8.2c0,5.9-4.8,10.7-10.7,10.7H32.7c-5.9,0-10.7-4.8-10.7-10.7V117.1c0-5.9,4.8-10.7,10.7-10.7H54
			c5.9,0,10.7,4.8,10.7,10.7v2.8V258C64.6,258.3,64.6,258.7,64.7,259.1z"/>
		
			<linearGradient id="SVGID_5_" gradientUnits="userSpaceOnUse" x1="181.9551" y1="-242.5" x2="181.9551" y2="-122.3501" gradientTransform="matrix(1 0 0 -1 0 2)">
			<stop  offset="0" style="stop-color:#FF8A00"/>
			<stop  offset="1" style="stop-color:#FFC000"/>
		</linearGradient>
		<path class="st4" d="M269.1,131.7c7.2,8.5,10.2,19.5,8.4,30.5l-14.1,84.4c-3,18.2-18.6,31.4-37.1,31.4h-22.1
			c-69,0-106.5-18.3-118.3-25.2V126c15.4-9.5,56.6-38.6,56.6-78.5c0-25.5,3.9-25.5,7.4-25.5c7.8,0,19.5,10,19.5,37.5
			c0,26.2-10.2,42.2-10.3,42.3c-2.2,3.3-2.4,7.5-0.5,11c1.9,3.4,5.5,5.6,9.4,5.6h72.3C251.5,118.5,261.9,123.3,269.1,131.7z"/>
	</g>
</g>
</svg>
