<svg id="icons" xmlns="http://www.w3.org/2000/svg" viewBox="0 0 512 512"><defs><style>.cls-1{fill:#0093db;}</style></defs><title>m-icon03</title><path class="cls-1" d="M17.37,224.18H61.5a118.41,118.41,0,0,0,11.2,26.95L41.47,282.36a8,8,0,0,0,0,11.25l33.74,33.75a8,8,0,0,0,11.25,0l31.24-31.24a117.89,117.89,0,0,0,26.94,11.2v44.13a8,8,0,0,0,8,8h47.73a8,8,0,0,0,8-8V307.32a118,118,0,0,0,26.95-11.2l31.23,31.24a8.18,8.18,0,0,0,11.25,0l33.75-33.75a8,8,0,0,0,0-11.25l-31.24-31.23a118,118,0,0,0,11.21-26.95h44.12a8,8,0,0,0,8-8V168.5a8,8,0,0,0-8-7.95H291.42a118,118,0,0,0-11.21-27l31.23-31.22a8,8,0,0,0,0-11.26L277.7,57.37a8,8,0,0,0-11.25,0L235.22,88.61a118.6,118.6,0,0,0-26.95-11.2V33.28a8,8,0,0,0-8-8H152.59a8,8,0,0,0-8,8V77.41a118.33,118.33,0,0,0-26.94,11.2L86.46,57.37a8.2,8.2,0,0,0-11.25,0L41.46,91.12a8,8,0,0,0,0,11.26L72.7,133.6a118.41,118.41,0,0,0-11.2,27H17.37a8,8,0,0,0-8,7.95v47.73A8,8,0,0,0,17.37,224.18Zm8-47.72h42.4a8,8,0,0,0,7.77-6.26,102.34,102.34,0,0,1,13.94-33.52,8,8,0,0,0-1.08-9.91l-30-30L80.84,74.24l30,30a8,8,0,0,0,9.93,1.08A102.59,102.59,0,0,1,154.3,91.4a8,8,0,0,0,6.25-7.77V41.23h31.81v42.4a8,8,0,0,0,6.26,7.77,102.77,102.77,0,0,1,33.52,13.94,8,8,0,0,0,9.92-1.08l30-30,22.49,22.51-30,30a8,8,0,0,0-1.07,9.92,102.47,102.47,0,0,1,13.92,33.53,8,8,0,0,0,7.77,6.26h42.41v31.81H285.18a8,8,0,0,0-7.77,6.25,102.33,102.33,0,0,1-13.92,33.52,8,8,0,0,0,1.07,9.92l30,30-22.5,22.51-30-30a8,8,0,0,0-9.92-1.08,102.2,102.2,0,0,1-33.51,13.94,8,8,0,0,0-6.27,7.77v42.4H160.55V301.1a8,8,0,0,0-6.26-7.77,102.11,102.11,0,0,1-33.51-13.94,8,8,0,0,0-9.93,1.08l-30,30L58.34,288l30-30a8,8,0,0,0,1.08-9.92,102.3,102.3,0,0,1-13.94-33.53,8,8,0,0,0-7.77-6.25H25.32Z"/><path class="cls-1" d="M176.46,256a63.64,63.64,0,1,0-63.64-63.64A63.63,63.63,0,0,0,176.46,256Zm0-111.36a47.73,47.73,0,1,1-47.73,47.72A47.73,47.73,0,0,1,176.46,144.64Z"/><path class="cls-1" d="M176.46,279.86A87.5,87.5,0,1,0,89,192.36,87.49,87.49,0,0,0,176.46,279.86Zm0-159.08a71.59,71.59,0,1,1-71.59,71.58A71.59,71.59,0,0,1,176.46,120.78Z"/><path class="cls-1" d="M462.81,391.22V327.59a8,8,0,0,0-7.95-7.95H439V256a8,8,0,0,0-7.95-7.95H359.41a8,8,0,0,0-8,7.95v63.64H311.68a8,8,0,0,0-7.95,7.95v63.63H49.19A39.83,39.83,0,0,0,9.41,431v15.91a39.83,39.83,0,0,0,39.78,39.77H462.81a39.83,39.83,0,0,0,39.78-39.77V431A39.83,39.83,0,0,0,462.81,391.22Zm-15.9,0H391.22V335.54h55.69ZM367.36,264H423v55.69H367.36Zm-47.72,71.59h55.68v55.68H319.64Zm167,111.37a23.87,23.87,0,0,1-23.87,23.86H49.19a23.87,23.87,0,0,1-23.87-23.86V431a23.87,23.87,0,0,1,23.87-23.87H462.81A23.87,23.87,0,0,1,486.68,431Z"/><path class="cls-1" d="M256,415.09A23.86,23.86,0,1,0,279.86,439,23.86,23.86,0,0,0,256,415.09Zm0,31.82a8,8,0,1,1,7.95-8A8,8,0,0,1,256,446.91Z"/><path class="cls-1" d="M176.46,415.09A23.86,23.86,0,1,0,200.32,439,23.87,23.87,0,0,0,176.46,415.09Zm0,31.82a8,8,0,1,1,7.95-8A8,8,0,0,1,176.46,446.91Z"/><path class="cls-1" d="M335.54,415.09A23.86,23.86,0,1,0,359.41,439,23.86,23.86,0,0,0,335.54,415.09Zm0,31.82a8,8,0,1,1,8-8A8,8,0,0,1,335.54,446.91Z"/><path class="cls-1" d="M96.91,415.09A23.86,23.86,0,1,0,120.78,439,23.86,23.86,0,0,0,96.91,415.09Zm0,31.82a8,8,0,1,1,8-8A8,8,0,0,1,96.91,446.91Z"/><path class="cls-1" d="M415.09,415.09A23.86,23.86,0,1,0,439,439,23.87,23.87,0,0,0,415.09,415.09Zm0,31.82a8,8,0,1,1,8-8A8,8,0,0,1,415.09,446.91Z"/></svg>