<svg id="icons" xmlns="http://www.w3.org/2000/svg" viewBox="0 0 512 512"><defs><style>.cls-1{fill:#0093db;}</style></defs><title>m-icon01</title><path class="cls-1" d="M31,376.26a7.78,7.78,0,0,0,4,6.79L252.24,503.3a7.77,7.77,0,0,0,7.52,0L477,383.05a7.76,7.76,0,0,0,0-13.58l-96.37-53.34L477,262.79a7.76,7.76,0,0,0,0-13.58l-96.36-53.34L477,142.53A7.76,7.76,0,0,0,477,129L259.76,8.69a7.79,7.79,0,0,0-7.52,0L35,129a7.76,7.76,0,0,0,0,13.58l96.36,53.34L35,249.21a7.76,7.76,0,0,0,0,13.58l96.37,53.34L35,369.47a7.75,7.75,0,0,0-4,6.79Zm209,0-92.64,51.23-38.26-21.17,92.61-51.25Zm16,111.39-38.34-21.23L418.9,355l38.33,21.22ZM402.87,346.17,201.63,457.56l-38.28-21.18,96.41-53.33L364.62,325ZM147.34,84.5l38.3,21.19-38.28,21.17-38.29-21.19Zm54.29-30.06,38.3,21.19L201.66,96.81l-38.3-21.19Zm147,21.16L310.26,96.82,272,75.64l38.35-21.22Zm54.28,30.05-38.33,21.21-38.27-21.17,38.34-21.21Zm-92.62,51.26L272,135.74l38.29-21.18,38.26,21.18Zm54.29-12.29,38.32,21.21L364.61,187l-38.34-21.21Zm-70.31,21.17L256,187l-38.28-21.18L256,144.61Zm0-60.1L256,126.86l-38.28-21.17L256,84.51Zm-92.56,8.87,38.26,21.18-38.27,21.17-38.26-21.17Zm-16,51.23L147.33,187,109.07,165.8l38.29-21.18Zm16,8.87,38.28,21.18L201.63,217l-38.28-21.18ZM256,204.71l38.34,21.22L256,247.13,217.66,225.9Zm54.37,12.35L272,195.84l38.29-21.18,38.33,21.22ZM418.89,157l-38.33-21.21,38.33-21.21,38.33,21.21ZM256,24.35l38.3,21.2L256,66.77l-38.3-21.19ZM93.05,114.55l38.29,21.19L93.05,156.93,54.77,135.74Zm54.33,90.19,104.86,58.05a7.77,7.77,0,0,0,7.52,0l104.86-58.05L457.23,256,256,367.39,54.77,256Zm0,120.26,38.29,21.19L93.05,397.45,54.77,376.26Z"/></svg>