<svg id="icons" xmlns="http://www.w3.org/2000/svg" viewBox="0 0 512 512"><defs><style>.cls-1{fill:#0093db;}</style></defs><title>m-icon04</title><rect class="cls-1" x="296" y="416" width="16" height="80"/><rect class="cls-1" x="200" y="416" width="16" height="80"/><path class="cls-1" d="M256,240a40.05,40.05,0,0,0-40,40v16a40,40,0,0,0,80,0V280A40.05,40.05,0,0,0,256,240Zm24,56a24,24,0,0,1-48,0V280a24,24,0,0,1,48,0Z"/><path class="cls-1" d="M440,368H360a56.12,56.12,0,0,0-21.06,4.13A55.88,55.88,0,0,0,296,352H216a55.88,55.88,0,0,0-42.94,20.13A56.12,56.12,0,0,0,152,368H72a56.07,56.07,0,0,0-56,56v72H32V424a40.05,40.05,0,0,1,40-40h32V496h16V384h32a40.12,40.12,0,0,1,12.48,2.08A55.6,55.6,0,0,0,160,408v88h16V408a40.05,40.05,0,0,1,40-40h32V496h16V368h32a40.05,40.05,0,0,1,40,40v88h16V408a55.6,55.6,0,0,0-4.48-21.92A40.12,40.12,0,0,1,360,384h32V496h16V384h32a40.05,40.05,0,0,1,40,40v72h16V424A56.07,56.07,0,0,0,440,368Z"/><rect class="cls-1" x="56" y="432" width="16" height="64"/><path class="cls-1" d="M112,256a40,40,0,0,0-40,40v16a40,40,0,0,0,80,0V296A40,40,0,0,0,112,256Zm24,56a24,24,0,0,1-48,0V296a24,24,0,0,1,48,0Z"/><rect class="cls-1" x="440" y="432" width="16" height="64"/><path class="cls-1" d="M400,256a40,40,0,0,0-40,40v16a40,40,0,0,0,80,0V296A40,40,0,0,0,400,256Zm24,56a24,24,0,0,1-48,0V296a24,24,0,0,1,48,0Z"/><path class="cls-1" d="M443.78,216a189.94,189.94,0,0,0-26.73-64.49L454,114.58,397.42,58,360.49,95A189.74,189.74,0,0,0,296,68.22V16H216V68.23A191,191,0,0,0,151.51,95L114.58,58,58,114.58,95,151.51A189.74,189.74,0,0,0,68.22,216H16v80H56V280H32V232H81.54l1.17-6.62a173.84,173.84,0,0,1,29.11-70.26l3.86-5.5-35.05-35,34-33.95,35,35.05,5.5-3.85a174.72,174.72,0,0,1,70.27-29.12L232,81.54V32h48V81.54l6.62,1.17a173.84,173.84,0,0,1,70.26,29.11l5.5,3.86,35-35.05,33.95,34-35.05,35,3.86,5.5a173.88,173.88,0,0,1,29.11,70.27l1.17,6.61H480v48H456v16h40V216Z"/><path class="cls-1" d="M247.1,184.42a64.28,64.28,0,0,0-54.45,54.44l15.85,2.28a48.29,48.29,0,0,1,95.58,0l15.84-2.28A64.29,64.29,0,0,0,247.1,184.42Z"/><path class="cls-1" d="M239.06,137A120,120,0,0,0,137.19,238.86L153,241.14a104,104,0,0,1,205.89,0h0l15.85-2.28A120,120,0,0,0,239.06,137Z"/></svg>