<svg id="icons" xmlns="http://www.w3.org/2000/svg" viewBox="0 0 512 512"><defs><style>.cls-1{fill:#0093db;}</style></defs><title>m-icon02</title><path class="cls-1" d="M232,160.5H56v112H232Zm-16,16v38.08c-.29-.57-.56-1.06-.86-1.66-4.31-8.62-10.22-20.42-23.17-20.42s-18.86,11.81-23.18,20.42c-3.39,6.78-6,11.58-8.86,11.58s-5.45-4.8-8.83-11.58c-4.31-8.61-10.21-20.42-23.16-20.42s-18.83,11.81-23.14,20.42c-3.38,6.78-6,11.58-8.83,11.58s-5.45-4.8-8.83-11.58c-3.29-6.59-7.55-15-15.14-18.61V176.5Zm-144,80v-38c.28.55.54,1,.83,1.61C77.14,228.69,83,240.5,96,240.5s18.84-11.81,23.15-20.42c3.38-6.78,6-11.58,8.82-11.58s5.45,4.8,8.84,11.58c4.31,8.61,10.2,20.42,23.15,20.42s18.85-11.8,23.17-20.42c3.4-6.78,6-11.58,8.87-11.58s5.47,4.8,8.85,11.58c3.3,6.6,7.56,15,15.17,18.62v17.8Z"/><path class="cls-1" d="M328,160.5H280v48h48Zm-16,32H296v-16h16Z"/><path class="cls-1" d="M392,160.5H344v48h48Zm-16,32H360v-16h16Z"/><path class="cls-1" d="M456,160.5H408v48h48Zm-16,32H424v-16h16Z"/><path class="cls-1" d="M328,224.5H280v48h48Zm-16,32H296v-16h16Z"/><path class="cls-1" d="M392,224.5H344v48h48Zm-16,32H360v-16h16Z"/><path class="cls-1" d="M456,224.5H408v48h48Zm-16,32H424v-16h16Z"/><path class="cls-1" d="M456,288.5H280v48H456Zm-16,32H296v-16H440Z"/><path class="cls-1" d="M497.27,95.62A16,16,0,0,0,488,84.82V51.5a16,16,0,0,0-16-16H456a16,16,0,0,0-16,16V84.82a15.94,15.94,0,0,0-9.27,10.8l-5,19.88H406.24l-5-19.88A16,16,0,0,0,392,84.82V51.5a16,16,0,0,0-16-16H360a16,16,0,0,0-16,16V84.82a15.94,15.94,0,0,0-9.27,10.8l-5,19.88H310.24l-5-19.88A16,16,0,0,0,296,84.82V51.5a16,16,0,0,0-16-16H264a16,16,0,0,0-16,16V84.82a15.94,15.94,0,0,0-9.27,10.8l-5,19.88H8v361H504v-353Zm-51,3.88h35.5l4,16h-43.5ZM472,51.5v32H456v-32Zm-96,0v32H360v-32Zm-25.75,48h35.5l4,16H346.24ZM280,51.5v32H264v-32Zm-25.75,48h35.5l4,16H250.24ZM488,131.5v237H24v-237Zm0,253v16H24v-16Zm-464,76v-44H488v42.33"/><path class="cls-1" d="M64,336.5a24,24,0,1,0-24-24A24,24,0,0,0,64,336.5Zm0-32a8,8,0,1,1-8,8A8,8,0,0,1,64,304.5Z"/><path class="cls-1" d="M200,312.5a24,24,0,1,0,24-24A24,24,0,0,0,200,312.5Zm32,0a8,8,0,1,1-8-8A8,8,0,0,1,232,312.5Z"/><path class="cls-1" d="M104,336.5h80v-48H104Zm16-32h48v16H120Z"/></svg>